<?xml version="1.0" encoding="UTF-8"?>
<svg xmlns="http://www.w3.org/2000/svg" viewBox="0 0 96 96" role="img" aria-label="PregnancyPal">
  <defs>
    <linearGradient id="ppal-grad" x1="0" y1="0" x2="1" y2="1">
      <stop offset="0%" stop-color="#F472B6"/>
      <stop offset="100%" stop-color="#A78BFA"/>
    </linearGradient>
    <linearGradient id="ppal-soft" x1="0" y1="0" x2="0" y2="1">
      <stop offset="0%" stop-color="#FFFFFF"/>
      <stop offset="100%" stop-color="#FCE4EC"/>
    </linearGradient>
  </defs>
  <rect x="2" y="2" width="92" height="92" rx="22" fill="url(#ppal-grad)"/>
  <path d="M48 78 C48 78 18 54 18 36 C18 24 26 18 34 18 C42 18 48 24 48 24 C48 24 54 18 62 18 C70 18 78 24 78 36 C78 54 48 78 48 78 Z" fill="url(#ppal-soft)" opacity="0.96"/>
  <g transform="translate(36, 28)">
    <circle cx="12" cy="6" r="5" fill="#E91E63"/>
    <ellipse cx="12" cy="22" rx="8" ry="10" fill="#E91E63"/>
    <ellipse cx="12" cy="24" rx="6" ry="7" fill="#F06292" opacity="0.6"/>
    <ellipse cx="5" cy="18" rx="3" ry="7" fill="#E91E63" transform="rotate(-20 5 18)"/>
    <ellipse cx="19" cy="18" rx="3" ry="7" fill="#E91E63" transform="rotate(20 19 18)"/>
  </g>
</svg>
